<svg id="e1f210d5-e14e-48f6-8ad3-86319619266f" data-name="svg2" xmlns="http://www.w3.org/2000/svg" fill="#fff" viewBox="0 0 1000 1187.2"><title>platform-mac</title><path id="df72b04f-40ad-4b5d-bfef-17ecfa780931" data-name="path4" d="M979,925.2a642,642,0,0,1-63.8,114.7q-50.2,71.8-82.2,99.4-49.2,45.3-105.7,46.6c-27,0-59.6-7.7-97.6-23.4s-73.1-23.2-105.1-23.2-69.5,7.7-108,23.2-69.7,23.8-93.4,24.6q-54.1,2.3-108.1-47.8-34.3-30-86-102.9Q73.9,958.6,38.2,855.8.1,744.7,0,640.5,0,521.1,51.6,434.8q40.7-69.3,108.2-109.4c45-26.7,93.7-40.3,146.1-41.2,28.7,0,66.3,8.9,113.1,26.3s76.6,26.4,89.7,26.4c9.8,0,43.1-10.4,99.4-31.1,53.3-19.2,98.3-27.1,135.2-24q149.9,12.1,224.8,118.4-134,81.2-132.6,227.2c.8,75.7,28.3,138.8,82.3,188.8a272.5,272.5,0,0,0,82.2,54q-9.9,28.6-21,55ZM750,23.8c0,59.3-21.7,114.8-65,166.1-52.1,61-115.3,96.2-183.7,90.7a181.2,181.2,0,0,1-1.4-22.5c0-57,24.8-118,68.9-167.9q33-37.9,83.9-63T748.7,0A210.9,210.9,0,0,1,750,23.8Z" transform="translate(0 0)"/></svg>