<?xml version="1.0" encoding="utf-8"?>
<!-- Generator: Adobe Illustrator 22.0.0, SVG Export Plug-In . SVG Version: 6.00 Build 0)  -->
<svg version="1.1" xmlns="http://www.w3.org/2000/svg" xmlns:xlink="http://www.w3.org/1999/xlink" x="0px" y="0px"
	 viewBox="0 0 233 233" style="enable-background:new 0 0 233 233;" xml:space="preserve">
<style type="text/css">
	.st0{fill:#FFFFFF;}
</style>
<g id="Layer_2">
</g>
<g id="Layer_1">
	<g>
		<path class="st0" d="M72.6,178.4l-14.4-6c2.6,5.3,7,9.8,12.8,12.2c12.7,5.3,27.3-0.7,32.6-13.5h0c2.6-6.1,2.6-12.9,0-19.1
			c-2.5-6.2-7.3-11-13.5-13.5c-6.1-2.5-12.6-2.5-18.4-0.3l14.9,6.2c9.4,3.9,13.8,14.7,9.9,24C92.7,177.9,82,182.3,72.6,178.4z"/>
		<path class="st0" d="M184.2,87.3c0-16.3-13.2-29.5-29.5-29.5c-16.3,0-29.5,13.3-29.5,29.5c0,16.3,13.2,29.5,29.5,29.5
			C171,116.9,184.2,103.6,184.2,87.3z M132.7,87.3c0-12.3,9.9-22.2,22.1-22.2C167,65.1,177,75,177,87.3c0,12.3-9.9,22.2-22.2,22.2
			C142.6,109.5,132.7,99.5,132.7,87.3z"/>
		<path class="st0" d="M116.5,0C54.8,0,4.2,48,0.3,108.8c0,0,0,0.1,0.1,0.1c0,0,0,0,0,0l62.6,25.8c1.7-1.1,3.5-2.1,5.5-2.9
			c4.4-1.8,9-2.6,13.6-2.4l28.5-41.4c0-0.2,0-0.4,0-0.6c0-24.4,19.9-44.3,44.3-44.3c24.4,0,44.3,19.9,44.3,44.3
			c0,24.4-19.8,44.3-44.3,44.3c-0.3,0-0.7,0-1,0L113,160.8c0.1,4.5-0.7,9-2.5,13.3c-6.8,16.5-25.8,24.3-42.2,17.4
			c-10.1-4.2-16.9-12.9-19.1-22.8L5,150.5C19.6,198.2,64,233,116.5,233c64.3,0,116.5-52.2,116.5-116.5C233,52.2,180.8,0,116.5,0z"/>
	</g>
</g>
</svg>
