<svg fill="#fff" id="d06a13c5-356d-4689-9a19-4a9390ff6b73" data-name="Layer 1" xmlns="http://www.w3.org/2000/svg" viewBox="0 0 14.8 14.8"><defs><style>.\31 e0a2a16-bf8a-47d4-8500-a49e2ef194db{fill:#fff;}</style></defs><title>platform-ios</title><path class="1e0a2a16-bf8a-47d4-8500-a49e2ef194db" d="M11.5.1h-8A3.4,3.4,0,0,0,.1,3.5v8a3.4,3.4,0,0,0,3.4,3.4h8a3.4,3.4,0,0,0,3.4-3.4v-8A3.4,3.4,0,0,0,11.5.1Zm-9,10.4H2.2V5.9h.3ZM2.3,4.7c-.1,0-.2-.1-.2-.3a.2.2,0,0,1,.2-.2c.2,0,.3.1.3.2A.3.3,0,0,1,2.3,4.7Zm3.6,5.9c-1.7,0-2.8-1.2-2.8-3.2S4.2,4.2,5.9,4.2,8.7,5.4,8.7,7.4,7.6,10.6,5.9,10.6Zm5.3,0h0A2.1,2.1,0,0,1,8.9,8.9h.4c0,.8.8,1.4,1.9,1.4S13,9.7,13,8.9s-.4-1-1.5-1.3l-.7-.2c-1.2-.3-1.7-.8-1.7-1.5a1.8,1.8,0,0,1,2-1.7c1.2,0,2.1.7,2.1,1.6h-.3a1.7,1.7,0,0,0-1.8-1.3A1.6,1.6,0,0,0,9.4,5.9c0,.6.5.9,1.5,1.2l.7.2c1.2.3,1.8.7,1.8,1.6S12.5,10.6,11.2,10.6Z" transform="translate(-0.1 -0.1)"/><path class="1e0a2a16-bf8a-47d4-8500-a49e2ef194db" d="M5.9,4.5h0c-1.5,0-2.4,1.1-2.4,2.9s.9,2.9,2.4,2.9S8.3,9.2,8.3,7.4,7.4,4.5,5.9,4.5Z" transform="translate(-0.1 -0.1)"/></svg>