<svg xmlns="http://www.w3.org/2000/svg" viewBox="0 0 392.82 244.54"><defs><style>.b0297343-2880-49d1-bf2f-09632273ce3e{fill:#fff;}</style></defs><title>controller</title><g id="156241d5-e1b8-42cb-8f0b-6d424c825c57" data-name="Layer 2"><circle cx="132.79" cy="135.5" r="19.5"/><circle cx="258.79" cy="135.5" r="19.5"/><path d="M323,122v58.5a4.56,4.56,0,0,1-4.5,4.5h-150a4.56,4.56,0,0,1-4.5-4.5V122H149v58.5A19.53,19.53,0,0,0,168.5,200h150A19.53,19.53,0,0,0,338,180.5V122Z" transform="translate(-47.71 -89)"/><path d="M90,123.39V108.5a4.56,4.56,0,0,1,4.5-4.5h37a4.56,4.56,0,0,1,4.5,4.5V120c2.88.67,5.87,1.48,9,2.46,2.16.68,4.15,1.38,6,2.09V108.5A19.53,19.53,0,0,0,131.5,89h-37A19.53,19.53,0,0,0,75,108.5v29.08A39.33,39.33,0,0,1,90,123.39Z" transform="translate(-47.71 -89)"/><path d="M398,123.39V108.5a4.56,4.56,0,0,0-4.5-4.5h-37a4.56,4.56,0,0,0-4.5,4.5V120c-2.88.67-5.87,1.48-9,2.46-2.16.68-4.15,1.38-6,2.09V108.5A19.53,19.53,0,0,1,356.5,89h37A19.53,19.53,0,0,1,413,108.5v29.08A39.33,39.33,0,0,0,398,123.39Z" transform="translate(-47.71 -89)"/><path d="M112.1,147v41" transform="translate(-47.71 -89)"/><path d="M112.1,198a10,10,0,0,1-10-10V147a10,10,0,0,1,20,0v41A10,10,0,0,1,112.1,198Z" transform="translate(-47.71 -89)"/><path d="M133,167.9H92" transform="translate(-47.71 -89)"/><path d="M133,177.9H92a10,10,0,1,1,0-20h41a10,10,0,0,1,0,20Z" transform="translate(-47.71 -89)"/><circle cx="330.79" cy="57.5" r="13.5"/><circle cx="330.79" cy="101.5" r="13.5"/><circle cx="352.79" cy="79.5" r="13.5"/><circle cx="308.79" cy="79.5" r="13.5"/></g><g id="3ae823bf-2abe-4a0a-bb03-066e52b5e6a0" data-name="Layer 1"><line x1="97.29" y1="30.5" x2="293.29" y2="30.5"/><rect x="96.29" y="23" width="196" height="15"/><line x1="102.29" y1="150.5" x2="286.29" y2="150.5"/><path d="M143.5,127h25.94A66.47,66.47,0,0,0,69.8,214.6l2.55-28.71a51.47,51.47,0,0,1,63.91-61.51A52.29,52.29,0,0,1,143.5,127Z" transform="translate(-47.71 -89)"/><path d="M429.86,156.15A66.45,66.45,0,0,0,318.79,127h25.94a51.49,51.49,0,0,1,70.68,33.17,51.28,51.28,0,0,1,.48,25.72l2.54,28.71A66.46,66.46,0,0,0,429.86,156.15Z" transform="translate(-47.71 -89)"/><path d="M335.91,238.43c-2.86,0-5,.1-7.76,2.45a27,27,0,0,1-41.74,5.67,17.44,17.44,0,0,1-2.54-2.78,26.87,26.87,0,0,1-5.4-11.77H263.31a42,42,0,0,0,80.45,11.16C341.83,241,338.9,238.43,335.91,238.43Z" transform="translate(-47.71 -89)"/><path class="b0297343-2880-49d1-bf2f-09632273ce3e" d="M255,284" transform="translate(-47.71 -89)"/><path d="M208.53,232a27,27,0,0,1-5.39,11.77,17.87,17.87,0,0,1-2.55,2.78,27,27,0,0,1-41.74-5.67c-2.74-2.35-4.9-2.45-7.76-2.45-3.09,0-5.8,3.13-7.46,5.61a42,42,0,0,0,80.06-12Z" transform="translate(-47.71 -89)"/><path d="M159,241c-2.81-2.48-5-2.57-7.91-2.57-5.11,0-9.19,8.57-9.19,8.57l-1.46,3h0l-25,51.44-.16.38c-.33.77-7.25,16.69-24.23,16.69a31.75,31.75,0,0,1-8.53-1.23C60.1,311,62.64,290.72,63,288.48l0-.29,9.21-100.94-14.93-1.36L48.15,286.26c-2,12.44,1.8,37.51,30.34,45.46a47,47,0,0,0,12.66,1.82c20.9,0,33.58-15.74,37.86-25.71l31.59-65A12.54,12.54,0,0,0,159,241Z" transform="translate(-47.71 -89)"/><path d="M280,232H207a19.08,19.08,0,0,1-7,15H287A19.08,19.08,0,0,1,280,232Z" transform="translate(-47.71 -89)"/><path d="M328,241c-1.45,1.27-3,4-5,6h11v-8.52A9.05,9.05,0,0,0,328,241Z" transform="translate(-47.71 -89)"/><path d="M440.08,286.25l-9.16-100.36L416,187.25l9.19,100.64.07.59c.16.91,3.56,22.37-19.52,28.8C383.14,323.57,373.93,304,373,301.82l-.08-.19-27.36-56.3c-1.36-1.85-5.44-6.9-9.62-6.9-2.91,0-5.1.09-7.91,2.57a8.77,8.77,0,0,0-.83.87l32.06,66c4.27,10,16.95,25.71,37.85,25.71a47,47,0,0,0,12.67-1.82C438.29,323.77,442.08,298.7,440.08,286.25Z" transform="translate(-47.71 -89)"/></g></svg>