<svg id="4f7f420c-c75a-4c1f-8dc3-c469d3a06a76" data-name="Layer 1" xmlns="http://www.w3.org/2000/svg" viewBox="0 0 401 401"><defs><style>.b1b0ff96-28db-46f8-9efa-d5804cbc3901{fill:#011321;}</style></defs><title>bg-dpad</title><path class="b1b0ff96-28db-46f8-9efa-d5804cbc3901" d="M316.7,130.2,242,206l-75.7-75.8V49a10,10,0,0,1,10-10H306.7a10,10,0,0,1,10,10Z" transform="translate(-41 -39)"/><path class="b1b0ff96-28db-46f8-9efa-d5804cbc3901" d="M316.7,348.8,242,273l-75.7,75.8V430a10,10,0,0,0,10,10H306.7a10,10,0,0,0,10-10Z" transform="translate(-41 -39)"/><path class="b1b0ff96-28db-46f8-9efa-d5804cbc3901" d="M350.8,314.7,275,240l75.8-75.7H432a10,10,0,0,1,10,10V304.7a10,10,0,0,1-10,10Z" transform="translate(-41 -39)"/><path class="b1b0ff96-28db-46f8-9efa-d5804cbc3901" d="M132.2,314.7,208,240l-75.8-75.7H51a10,10,0,0,0-10,10V304.7a10,10,0,0,0,10,10Z" transform="translate(-41 -39)"/></svg>