<svg xmlns="http://www.w3.org/2000/svg" viewBox="0 0 200 435"><title>mouse</title><g id="d73557ab-78ed-475d-8515-77c8e33776c3" data-name="Layer 1"><path d="M256,484H236a90.1,90.1,0,0,1-90-90V292a90.1,90.1,0,0,1,90-90h20a90.1,90.1,0,0,1,90,90V394A90.1,90.1,0,0,1,256,484ZM236,222a70.08,70.08,0,0,0-70,70V394a70.08,70.08,0,0,0,70,70h20a70.08,70.08,0,0,0,70-70V292a70.08,70.08,0,0,0-70-70Z" transform="translate(-146 -49)"/><path d="M256,328H236V182.2l.09-.54c.07-.68.65-7.69-3.38-12.23-2.91-3.27-8-4.93-15.21-4.93-14.28,0-22.75-6.21-27.35-11.42-11.75-13.34-10.68-33.27-10.18-38.35-.14-4.09.3-16.63,10.09-26.89C199,78.5,212.58,74.18,230.46,75c30.21,1.41,38.48,1.16,40.1,1.08l1.9-.51.73.34C275.14,75,280,69.17,280,49h20c0,20.26-4.43,34.29-13.15,41.68A21.46,21.46,0,0,1,272,96c-5.5.35-20.35,0-42.48-1-11.57-.54-20.16,1.71-24.86,6.51-4.89,5-4.75,11.9-4.72,12.63l.14,1.16-.18,1c-.51,4.31-.58,17,5.27,23.63,2.75,3.1,6.78,4.61,12.31,4.61,13.29,0,23.51,4,30.38,11.89,9,10.41,8.48,23.53,8.12,27.17ZM270.88,76.06Z" transform="translate(-146 -49)"/><rect x="10" y="269" width="180" height="20"/></g></svg>