<svg id="3058e036-9bc2-4a78-add5-36adf32d8a5e" data-name="Layer 1" xmlns="http://www.w3.org/2000/svg" viewBox="0 0 191.2 61"><defs><style>.\35 df69347-efac-44a9-b385-bbd656e5bec9{fill:#5d5d5d;}</style></defs><title>help-gamespot</title><path class="5df69347-efac-44a9-b385-bbd656e5bec9" d="M153.6,61h0l-2.8-15-8.7,12.3,2.7-15-13.4,9.3,7.4-10.5a13.6,13.6,0,0,1-8.3,2.6,14.4,14.4,0,0,1-11.7-6,13.7,13.7,0,0,1-4.9,4.4,20.8,20.8,0,0,1-3.2,1.2,14.3,14.3,0,0,1-15.1-5.5A14.3,14.3,0,0,1,84,44.7a14.2,14.2,0,0,1-11.6-6,14.1,14.1,0,0,1-23.2.1,13.8,13.8,0,0,1-5,4.3,14,14,0,0,1-6.6,1.6,14.4,14.4,0,0,1-11.7-6,13.2,13.2,0,0,1-5,4.4,16.6,16.6,0,0,1-3.1,1.2,13.9,13.9,0,0,1-3.5.4,13.6,13.6,0,0,1-5.6-1.1,14.1,14.1,0,0,1-2.4-1.3,14.5,14.5,0,0,1-3.9-3.9A13.6,13.6,0,0,1,1.1,36,14.1,14.1,0,0,1,2.4,22.5a14.5,14.5,0,0,1,3.9-3.9,14.2,14.2,0,0,1,19.6,3.6,13.2,13.2,0,0,1,5-4.4,17.5,17.5,0,0,1,3.2-1.2,13.4,13.4,0,0,1,6.9,0,14.4,14.4,0,0,1,5.9,3,17.9,17.9,0,0,1,2.3,2.5,14.4,14.4,0,0,1,4.9-4.3,14.1,14.1,0,0,1,16,1.9,13.1,13.1,0,0,1,2.3,2.4,13.8,13.8,0,0,1,5-4.3,16.6,16.6,0,0,1,3.1-1.2,14.3,14.3,0,0,1,15.1,5.5,13.8,13.8,0,0,1,5-4.3,9.1,9.1,0,0,1,3.1-1.2,13.8,13.8,0,0,1,7,0,13.5,13.5,0,0,1,5.9,3.1,12.6,12.6,0,0,1,2.2,2.4,14.7,14.7,0,0,1,5-4.3,9.6,9.6,0,0,1,3.2-1.2,13.4,13.4,0,0,1,3.5-.5,14.3,14.3,0,0,1,8.2,2.6L131.4,8.3l13.4,9.4-2.7-15L150.8,15l2.8-15,2.9,15,8.6-12.4-2.6,15.1,13.3-9.4-7.5,10.8A14.3,14.3,0,0,1,187,40.6a13.7,13.7,0,0,1-4.5,3,14.4,14.4,0,0,1-14.3-1.8l7.6,10.8-13.3-9.3,2.6,15L156.5,46l-2.9,15Zm.1-36.6a5.9,5.9,0,0,0-5.7,6,5.8,5.8,0,0,0,11.6-.2,5.9,5.9,0,0,0-5.9-5.8ZM14.8,24.3c-3.3,0-6.9,1.9-6.9,6a5.3,5.3,0,0,0,1.8,4A6.5,6.5,0,0,0,14,35.9h0a12.7,12.7,0,0,0,2.8-.3l1.7-.2h1.3v-5H16.3v3l-1.1.3h-.3a2.9,2.9,0,0,1-2.3-1,3.8,3.8,0,0,1-.9-2.5,4.3,4.3,0,0,1,.9-2.6A3.6,3.6,0,0,1,15,26.4h.9a5.9,5.9,0,0,1,2.9.7l.2-1.6a5,5,0,0,0-2-.8l-2.2-.3ZM103,32.5l-1,1.2a8.4,8.4,0,0,0,5.2,2.2,6.4,6.4,0,0,0,3.5-1,3,3,0,0,0,1.5-2.4c-.1-2.1-2.1-3-3.8-3.7h0l-1.5-.7a1.2,1.2,0,0,1-.6-.9c0-.6.4-.9,1.3-.9a6.3,6.3,0,0,1,3.2,1l1-1.1a8.2,8.2,0,0,0-2-1.2,6.4,6.4,0,0,0-2.4-.5,7,7,0,0,0-3.2.6l-1.3,1a3,3,0,0,0-.5,1.6,2.7,2.7,0,0,0,1.2,2.3,9,9,0,0,0,2.4,1.2h0c1.2.5,2.3,1,2.3,1.8a.9.9,0,0,1-.4.8l-.9.2a7.6,7.6,0,0,1-4-1.5Zm68.5-7.8v1.9h3.7v8.9h3.3V26.6h3.7V24.7Zm-45.2,0V35.5h3.3V32h2.6c3,0,4.6-1.8,4.6-3.6s-1.4-3.7-4.5-3.7Zm-46.7,0V35.5h8.9V33.6H83.3V30.5h3.3V28.6H82.9v-2h5.6V24.7ZM63.7,29.1h0v6.4H67V24.7H64.3l-3.6,4.7-3.3-4.7H54.3V35.5h1.9V29.3L58.8,33h1.9ZM34.1,33.8h5l.9,1.7h3.8L38.7,24.7H36.2L31.3,35.5h2.1l.7-1.7Zm4.2-1.7H34.9l1.6-3.5,1.8,3.5Zm93-1.9h-1.7V26.6h1.7a2.1,2.1,0,0,1,2.1,1.8,2,2,0,0,1-2.1,1.8Z" transform="translate(0)"/><ellipse class="5df69347-efac-44a9-b385-bbd656e5bec9" cx="154" cy="30.7" rx="2" ry="3.5"/></svg>