<svg id="b077addf-7abb-4723-93f1-aeb3f3a42777" data-name="Layer 1" xmlns="http://www.w3.org/2000/svg" viewBox="0 0 357.6 30.8"><defs><style>.\36 88712ad-44f0-4ec7-8539-c17c1425c687{isolation:isolate;}.\30 aec8a8f-a92e-4390-94af-1ea22d17ba84{fill:#901a90;}.c01195a5-d049-461c-954a-a97b1b60744c{fill:#e0d415;}</style></defs><title>gamergecko</title><g class="688712ad-44f0-4ec7-8539-c17c1425c687"><g class="688712ad-44f0-4ec7-8539-c17c1425c687"><path class="0aec8a8f-a92e-4390-94af-1ea22d17ba84" d="M21.6,24.4h7V36A19.2,19.2,0,0,1,23,38.6a18.7,18.7,0,0,1-6.2,1,17.1,17.1,0,0,1-7.9-1.9,13.2,13.2,0,0,1-5.5-5.2,13.6,13.6,0,0,1-2-7.5,13.6,13.6,0,0,1,2-7.5,13.2,13.2,0,0,1,5.5-5.2A17.9,17.9,0,0,1,17,10.4a17.5,17.5,0,0,1,7,1.4,12.3,12.3,0,0,1,5.2,3.8l-5,4.5A8.9,8.9,0,0,0,17.4,17a7.6,7.6,0,0,0-8,8,8,8,0,0,0,1,4.1A6.5,6.5,0,0,0,13.2,32a7.8,7.8,0,0,0,4.1,1,10.7,10.7,0,0,0,4.3-.9Z" transform="translate(-1.4 -10.2)"/><path class="0aec8a8f-a92e-4390-94af-1ea22d17ba84" d="M93.8,39V24.2l-7.2,12H83L75.8,24.6V39H68.5V11H75l9.9,16.2L94.5,11H101V39Z" transform="translate(-1.4 -10.2)"/><path class="0aec8a8f-a92e-4390-94af-1ea22d17ba84" d="M129.2,32.9V39H106.7V11h21.9v6.1H114.5v4.7H127v6H114.5v5.1Z" transform="translate(-1.4 -10.2)"/><path class="0aec8a8f-a92e-4390-94af-1ea22d17ba84" d="M145.8,31.6h-4.3V39h-7.9V11h12.8a15.3,15.3,0,0,1,6.6,1.3,9.5,9.5,0,0,1,4.3,3.6,9.8,9.8,0,0,1,1.5,5.5,10.2,10.2,0,0,1-1.4,5.3,10.1,10.1,0,0,1-4.1,3.5l6.1,8.8h-8.5Zm3.8-13.3a5.8,5.8,0,0,0-3.7-1.1h-4.4v8.2h4.4a5.8,5.8,0,0,0,3.7-1,3.8,3.8,0,0,0,1.2-3A4,4,0,0,0,149.6,18.3Z" transform="translate(-1.4 -10.2)"/></g><g class="688712ad-44f0-4ec7-8539-c17c1425c687"><path class="c01195a5-d049-461c-954a-a97b1b60744c" d="M181.9,24.4h7V36a18.6,18.6,0,0,1-5.5,2.6,19.6,19.6,0,0,1-6.2,1,17.5,17.5,0,0,1-8-1.9,14.7,14.7,0,0,1-5.5-20.2,14,14,0,0,1,5.6-5.2,17.2,17.2,0,0,1,8-1.9,18,18,0,0,1,7.1,1.4,13,13,0,0,1,5.2,3.8l-5.1,4.5a8.7,8.7,0,0,0-6.8-3.1,7.8,7.8,0,0,0-5.8,2.2,8,8,0,0,0-2.2,5.8,9.2,9.2,0,0,0,1,4.1,7.1,7.1,0,0,0,2.8,2.9,8,8,0,0,0,4.1,1,10,10,0,0,0,4.3-.9Z" transform="translate(-1.4 -10.2)"/><path class="c01195a5-d049-461c-954a-a97b1b60744c" d="M216.4,32.9V39H194V11h21.9v6.1H201.8v4.7h12.4v6H201.8v5.1Z" transform="translate(-1.4 -10.2)"/><path class="c01195a5-d049-461c-954a-a97b1b60744c" d="M226.9,37.7a13.2,13.2,0,0,1-5.5-5.2,13.6,13.6,0,0,1-2-7.5,13.6,13.6,0,0,1,2-7.5,13.2,13.2,0,0,1,5.5-5.2,16.8,16.8,0,0,1,7.9-1.9,17.4,17.4,0,0,1,6.9,1.4,13.9,13.9,0,0,1,5.1,3.9l-5,4.6a8.5,8.5,0,0,0-6.6-3.3,7.8,7.8,0,0,0-4.1,1,7.5,7.5,0,0,0-2.8,2.8,9.3,9.3,0,0,0-.9,4.2,9.3,9.3,0,0,0,.9,4.2,7.5,7.5,0,0,0,2.8,2.8,7.8,7.8,0,0,0,4.1,1,8.5,8.5,0,0,0,6.6-3.3l5,4.6a13.9,13.9,0,0,1-5.1,3.9,17.4,17.4,0,0,1-6.9,1.4A16.8,16.8,0,0,1,226.9,37.7Z" transform="translate(-1.4 -10.2)"/><path class="c01195a5-d049-461c-954a-a97b1b60744c" d="M261.1,28.8,258.2,32v7h-7.9V11h7.9V22.6L269,11h8.7L266.3,23.4l12,15.6h-9.2Z" transform="translate(-1.4 -10.2)"/><path class="c01195a5-d049-461c-954a-a97b1b60744c" d="M285.5,37.7a14.5,14.5,0,0,1-5.5-5.2,13.6,13.6,0,0,1-2-7.5,13.6,13.6,0,0,1,2-7.5,14.5,14.5,0,0,1,5.5-5.2,17.8,17.8,0,0,1,8-1.9,17.5,17.5,0,0,1,8,1.9,14.8,14.8,0,0,1,5.6,5.2,14.5,14.5,0,0,1,2,7.5,14.5,14.5,0,0,1-2,7.5,14.8,14.8,0,0,1-5.6,5.2,17.5,17.5,0,0,1-8,1.9A17.8,17.8,0,0,1,285.5,37.7ZM297.4,32a8.1,8.1,0,0,0,2.7-2.8,9.3,9.3,0,0,0,0-8.4,8.1,8.1,0,0,0-2.7-2.8,7.6,7.6,0,0,0-3.9-1,7,7,0,0,0-3.8,1,6.6,6.6,0,0,0-2.7,2.8,8.2,8.2,0,0,0-1,4.2,8.2,8.2,0,0,0,1,4.2,6.6,6.6,0,0,0,2.7,2.8,7,7,0,0,0,3.8,1A7.6,7.6,0,0,0,297.4,32Z" transform="translate(-1.4 -10.2)"/></g></g><path class="c01195a5-d049-461c-954a-a97b1b60744c" d="M337,41a29.5,29.5,0,0,1-15.6-4.2c-4.1-2.8-6.4-6.4-6.4-10.3a10.8,10.8,0,0,1,2.2-6.4,7.8,7.8,0,0,1-.2-1.6,6.8,6.8,0,0,1,7-6.5,7.3,7.3,0,0,1,4.1,1.2,33.6,33.6,0,0,1,17.8,0A7.3,7.3,0,0,1,350,12a6.8,6.8,0,0,1,7,6.5,7.8,7.8,0,0,1-.2,1.6,10.8,10.8,0,0,1,2.2,6.4c0,3.9-2.3,7.5-6.4,10.3A29.5,29.5,0,0,1,337,41ZM317.9,23a7.3,7.3,0,0,0-.9,3.5c0,3.1,2.1,6,5.9,8.1a30.9,30.9,0,0,0,28.2,0c3.8-2.1,5.9-5,5.9-8.1a7.3,7.3,0,0,0-.9-3.5c-1.3,2.3-3.8,4.3-7.2,5.7a31.9,31.9,0,0,1-23.8,0c-3.4-1.4-5.9-3.4-7.2-5.7Zm23,2.5a2,2,0,0,0-2,2,1.9,1.9,0,0,0,1,1.7l1.9-3.5a1.5,1.5,0,0,0-.9-.2Zm-7.8,0-.9.2,1.9,3.5a2.1,2.1,0,0,0,.8-2.7A2.1,2.1,0,0,0,333.1,25.5ZM320.4,15a4.9,4.9,0,0,0-1.5,3.5,4.9,4.9,0,0,0,4.9,5.1,4.3,4.3,0,0,0,3.5-1.4Zm33.3,0h0l-6.9,7.2a5,5,0,0,0,7.1,0,5,5,0,0,0,0-7l-.2-.2Z" transform="translate(-1.4 -10.2)"/><path class="0aec8a8f-a92e-4390-94af-1ea22d17ba84" d="M48.5,22,42,33H55L48.5,22m0-11.8,5.2,8.7,6.5,11L65.5,39h-34l5.3-9.1,6.5-11Z" transform="translate(-1.4 -10.2)"/></svg>