<svg xmlns="http://www.w3.org/2000/svg" width="15" height="15" viewBox="0 0 11.68 11.687"><defs><style>.a{fill:#fff;}</style></defs><g transform="translate(-1.571 12.357)"><path class="a" d="M6.828-.695a5.828,5.828,0,0,1-2.593-.92c-.656-.428-.8-.6-.8-.955,0-.7.775-1.94,2.1-3.347A10.633,10.633,0,0,1,7.449-7.628a18.642,18.642,0,0,1,2.644,2.579c1.044,1.28,1.524,2.329,1.28,2.8A5.15,5.15,0,0,1,9.193-.936a6.408,6.408,0,0,1-2.364.241ZM2.546-3.3a6.06,6.06,0,0,1-.953-2.849,4.565,4.565,0,0,1,.1-1.425,5.834,5.834,0,0,1,1.42-2.884c.293-.3.319-.312.676-.192A4.938,4.938,0,0,1,5.4-9.537l.419.379-.229.281a18.17,18.17,0,0,0-2.607,4.3,2.786,2.786,0,0,0-.224,1.507c.067.176.005.11-.218-.233Zm9.564.142a2.836,2.836,0,0,0-.174-1.232A17.841,17.841,0,0,0,9.375-8.741l-.334-.42L9.4-9.492a7.628,7.628,0,0,1,1.152-.913,2.219,2.219,0,0,1,.849-.328c.106,0,.477.386.777.807a6.117,6.117,0,0,1,.98,2.265,7.541,7.541,0,0,1,.018,2.2,6.934,6.934,0,0,1-.438,1.383,7.4,7.4,0,0,1-.6,1.025c-.073.093-.073.093-.032-.108ZM6.925-10.931a7.266,7.266,0,0,0-1.661-.587,3.043,3.043,0,0,0-.554-.031c-.344.017-.329,0,.223-.261a5.676,5.676,0,0,1,1.361-.453,7.016,7.016,0,0,1,2.259,0,6.3,6.3,0,0,1,1.765.657l.123.075-.281-.014a5.109,5.109,0,0,0-2.247.623,4.654,4.654,0,0,1-.51.228c-.017,0-.232-.108-.478-.233Z" transform="translate(0)"/></g></svg>