<?xml version="1.0" encoding="utf-8"?>
<!-- Generator: Adobe Illustrator 22.0.0, SVG Export Plug-In . SVG Version: 6.00 Build 0)  -->
<svg version="1.1" id="Layer_1" xmlns="http://www.w3.org/2000/svg" xmlns:xlink="http://www.w3.org/1999/xlink" x="0px" y="0px"
	 viewBox="0 0 1005 1005" style="enable-background:new 0 0 1005 1005;" xml:space="preserve">
<style type="text/css">
	.st0{fill:none;}
	.st1{fill:#011525;}
</style>
<g>
	<circle class="st0" cx="502.5" cy="502.5" r="502.5"/>
	<path class="" d="M502.5,1005c-67.8,0-133.6-13.3-195.6-39.5c-59.8-25.3-113.6-61.5-159.7-107.7
		C101,811.7,64.8,757.9,39.5,698.1C13.3,636.1,0,570.3,0,502.5c0-67.8,13.3-133.6,39.5-195.6c25.3-59.8,61.5-113.6,107.7-159.7
		c46.1-46.1,99.9-82.4,159.7-107.7C368.9,13.3,434.7,0,502.5,0c67.8,0,133.6,13.3,195.6,39.5c59.8,25.3,113.6,61.5,159.7,107.7
		c46.1,46.1,82.4,99.9,107.7,159.7c26.2,62,39.5,127.8,39.5,195.6c0,67.8-13.3,133.6-39.5,195.6c-25.3,59.8-61.5,113.6-107.7,159.7
		s-99.9,82.4-159.7,107.7C636.1,991.7,570.3,1005,502.5,1005z M502.5,60C258.5,60,60,258.5,60,502.5S258.5,945,502.5,945
		S945,746.5,945,502.5S746.5,60,502.5,60z"/>
</g>
</svg>
