<svg xmlns="http://www.w3.org/2000/svg" viewBox="0 0 421.5 196"><title>keyboard</title><g id="ea6ddafb-401e-4b89-a74d-36aaca9070fa" data-name="Layer 1"><path d="M449.5,341H67a19.53,19.53,0,0,1-19.5-19.5v-157A19.53,19.53,0,0,1,67,145H449.5A19.53,19.53,0,0,1,469,164.5v157A19.53,19.53,0,0,1,449.5,341ZM67,160a4.56,4.56,0,0,0-4.5,4.5v157A4.56,4.56,0,0,0,67,326H449.5a4.56,4.56,0,0,0,4.5-4.5v-157a4.56,4.56,0,0,0-4.5-4.5Z" transform="translate(-47.5 -145)"/><rect x="22" y="23" width="24.72" height="22.99" rx="5" ry="5"/><rect x="22" y="61.52" width="27.5" height="22.99" rx="5" ry="5"/><rect x="22" y="90.78" width="40.5" height="22.99" rx="5" ry="5"/><rect x="22" y="120.04" width="55.5" height="22.99" rx="5" ry="5"/><rect x="83.55" y="23" width="24.72" height="22.99" rx="5" ry="5"/><rect x="83.55" y="61.52" width="24.72" height="22.99" rx="5" ry="5"/><rect x="53.55" y="61.52" width="24.72" height="22.99" rx="5" ry="5"/><rect x="67.55" y="90.78" width="24.72" height="22.99" rx="5" ry="5"/><rect x="83.55" y="120.04" width="24.72" height="22.99" rx="5" ry="5"/><rect x="114.82" y="61.52" width="24.72" height="22.99" rx="5" ry="5"/><rect x="98.82" y="90.78" width="24.72" height="22.99" rx="5" ry="5"/><rect x="114.82" y="120.04" width="24.72" height="22.99" rx="5" ry="5"/><rect x="116.12" y="23" width="24.72" height="22.99" rx="5" ry="5"/><rect x="148.12" y="61.52" width="24.72" height="22.99" rx="5" ry="5"/><rect x="132.12" y="90.78" width="24.72" height="22.99" rx="5" ry="5"/><rect x="148.12" y="120.04" width="24.72" height="22.99" rx="5" ry="5"/><rect x="146.39" y="23" width="24.72" height="22.99" rx="5" ry="5"/><rect x="210.39" y="23" width="24.72" height="22.99" rx="5" ry="5"/><rect x="179.39" y="61.52" width="24.72" height="22.99" rx="5" ry="5"/><rect x="163.39" y="90.78" width="24.72" height="22.99" rx="5" ry="5"/><rect x="179.39" y="120.04" width="24.72" height="22.99" rx="5" ry="5"/><rect x="209.66" y="61.52" width="24.72" height="22.99" rx="5" ry="5"/><rect x="193.66" y="90.78" width="24.72" height="22.99" rx="5" ry="5"/><rect x="209.66" y="120.04" width="24.72" height="22.99" rx="5" ry="5"/><rect x="240.94" y="23" width="24.72" height="22.99" rx="5" ry="5"/><rect x="224.94" y="90.78" width="24.72" height="22.99" rx="5" ry="5"/><rect x="240.94" y="149.3" width="24.72" height="22.99" rx="5" ry="5"/><rect x="272.22" y="23" width="24.72" height="22.99" rx="5" ry="5"/><rect x="240.5" y="61.52" width="56.44" height="22.99" rx="5" ry="5"/><rect x="310.66" y="23" width="24.72" height="22.99" rx="5" ry="5"/><rect x="310.66" y="62.26" width="24.72" height="22.99" rx="5" ry="5"/><rect x="310.66" y="91.52" width="24.72" height="22.99" rx="5" ry="5"/><rect x="341.94" y="23" width="24.72" height="22.99" rx="5" ry="5"/><rect x="341.94" y="62.26" width="24.72" height="22.99" rx="5" ry="5"/><rect x="341.94" y="91.52" width="24.72" height="22.99" rx="5" ry="5"/><rect x="373.22" y="23" width="24.72" height="22.99" rx="5" ry="5"/><rect x="373.22" y="62.26" width="24.72" height="22.99" rx="5" ry="5"/><rect x="373.22" y="91.52" width="24.72" height="22.99" rx="5" ry="5"/><rect x="310.66" y="149.52" width="24.72" height="22.99" rx="5" ry="5"/><rect x="341.94" y="120.26" width="24.72" height="22.99" rx="5" ry="5"/><rect x="341.94" y="149.52" width="24.72" height="22.99" rx="5" ry="5"/><rect x="373.22" y="149.52" width="24.72" height="22.99" rx="5" ry="5"/><rect x="256.22" y="90.78" width="40.28" height="22.99" rx="5" ry="5"/><rect x="240.5" y="120.04" width="56.44" height="22.99" rx="5" ry="5"/><rect x="272.22" y="149.3" width="24.72" height="22.99" rx="5" ry="5"/><rect x="22" y="149.3" width="24.72" height="22.99" rx="5" ry="5"/><rect x="53.28" y="149.3" width="24.72" height="22.99" rx="5" ry="5"/><rect x="83.55" y="149.3" width="150.84" height="22.99" rx="5" ry="5"/></g></svg>