<?xml version="1.0" encoding="utf-8"?>
<!-- Generator: Adobe Illustrator 22.0.0, SVG Export Plug-In . SVG Version: 6.00 Build 0)  -->
<svg version="1.1" id="Layer_1" xmlns="http://www.w3.org/2000/svg" xmlns:xlink="http://www.w3.org/1999/xlink" x="0px" y="0px"
	 viewBox="0 0 507.7 507.7" style="enable-background:new 0 0 507.7 507.7;" xml:space="preserve">
<style type="text/css">
	.st0{fill:none;}
	.st1{fill:#021220;}
</style>
<g transform="translate(0 190.564) rotate(-31)">
	<rect x="0" y="0" transform="matrix(-1 2.441463e-06 -2.441463e-06 -1 370.0005 369.9997)" class="st0" width="370" height="370"/>
	<path class="" d="M4.8,368.6c-0.7-0.4-1.3-0.9-1.9-1.5C1.1,365.2,0,362.7,0,360L0,10C0,4.5,4.5,0,10,0l350,0c5.5,0,10,4.5,10,10
		l0,350c0,2.7-1.1,5.2-2.9,7.1c-1.9,1.9-4.4,2.9-7.1,2.9l-350,0C8.2,370,6.4,369.5,4.8,368.6z M20,20l0,330l330,0l0-330L20,20z"/>
</g>
</svg>
