<svg id="dc6b2c6e-5547-4ca9-802c-6aeba569b709" data-name="Layer 1" xmlns="http://www.w3.org/2000/svg" viewBox="0 0 328.6 56.4"><defs><style>.\35 18bef71-fc97-40d2-81bb-08cdb57a23d1{fill:#901a90;}.a51d9288-caea-4a14-a111-9aefa9843ecd{fill:#e0d415;}.a51d9288-caea-4a14-a111-9aefa9843ecd2{fill:#e0d415;}</style></defs><title>logo2</title><path class="518bef71-fc97-40d2-81bb-08cdb57a23d1" d="M101.7,218.4H89.8c-3.2,0-5.6-.6-7.1-1.9s-2.3-3.2-2.3-5.8V198.8a7.5,7.5,0,0,1,2.3-5.9c1.5-1.2,3.9-1.9,7.1-1.9h9.5a1.1,1.1,0,0,1,1,.4,1.3,1.3,0,0,1,.3,1V197a1.8,1.8,0,0,1-.3,1.1,1.3,1.3,0,0,1-1,.3H91.4a2.4,2.4,0,0,0-1.8.5,1.7,1.7,0,0,0-.6,1.4v9.1a2,2,0,0,0,.5,1.4,1.7,1.7,0,0,0,1.3.4h3.7v-5.9a1.3,1.3,0,0,1,.3-1,1.2,1.2,0,0,1,1-.4h5.9a1.2,1.2,0,0,1,1.1.4,1.3,1.3,0,0,1,.3,1v11.8a1.5,1.5,0,0,1-.3,1A1.6,1.6,0,0,1,101.7,218.4Z" transform="translate(-50.8 -162.1)"/><path class="518bef71-fc97-40d2-81bb-08cdb57a23d1" d="M115.5,217.1a1.5,1.5,0,0,1-.3,1,1.6,1.6,0,0,1-1.1.3h-5.5a1.6,1.6,0,0,1-1.1-.3,1.5,1.5,0,0,1-.3-1V207a13.8,13.8,0,0,1,.3-2.6c.3-1,.7-2.2,1.2-3.5l3.3-8.6a1.8,1.8,0,0,1,.7-1,2.1,2.1,0,0,1,1.2-.3h10.2a2.1,2.1,0,0,1,1.2.3,1.4,1.4,0,0,1,.7,1l3.4,8.6c.5,1.3.8,2.5,1.1,3.5a13.8,13.8,0,0,1,.3,2.6v10.1a1.5,1.5,0,0,1-.3,1,1.3,1.3,0,0,1-1,.3h-5.8a1.6,1.6,0,0,1-1.1-.3,1.5,1.5,0,0,1-.4-1v-5.4h-6.7Zm2.2-18.1-1.8,5.8h6l-1.8-5.8-.3-.5H118Z" transform="translate(-50.8 -162.1)"/><path class="518bef71-fc97-40d2-81bb-08cdb57a23d1" d="M142.6,218.4h-5.7a1.8,1.8,0,0,1-1.1-.3,1.5,1.5,0,0,1-.3-1V192.4a1.3,1.3,0,0,1,.3-1,1.4,1.4,0,0,1,1.1-.4H143a1.5,1.5,0,0,1,1,.3,3.6,3.6,0,0,1,.8.9l3.4,6.2.3.5h1.1l.3-.5,3.4-6.2a3.5,3.5,0,0,1,.7-.9,1.7,1.7,0,0,1,1-.3h6.2a1.4,1.4,0,0,1,1.4,1.4v24.7a1.2,1.2,0,0,1-.4,1,1.3,1.3,0,0,1-1,.3h-5.9a1.1,1.1,0,0,1-1.3-1.3V203.7l-2.3,4.1a1.8,1.8,0,0,1-.8.9,2.1,2.1,0,0,1-1.2.3h-1.5a2.1,2.1,0,0,1-1.2-.3,1.8,1.8,0,0,1-.8-.9l-2.3-4.1v13.4a1.1,1.1,0,0,1-1.3,1.3Z" transform="translate(-50.8 -162.1)"/><path class="518bef71-fc97-40d2-81bb-08cdb57a23d1" d="M168.6,218.4a1.6,1.6,0,0,1-1.1-.3,1.5,1.5,0,0,1-.3-1v-4.6a1.5,1.5,0,0,1,.3-1,1.6,1.6,0,0,1,1.1-.3h3.7V198.4h-3.7a1.6,1.6,0,0,1-1.1-.3,1.8,1.8,0,0,1-.3-1.1v-4.6a1.3,1.3,0,0,1,.3-1,1.2,1.2,0,0,1,1.1-.4h16.2a1.1,1.1,0,0,1,1,.4,1.3,1.3,0,0,1,.3,1V197a1.8,1.8,0,0,1-.3,1.1,1.3,1.3,0,0,1-1,.3h-3.7v12.8h3.7a1.3,1.3,0,0,1,1,.3,1.5,1.5,0,0,1,.3,1v4.6a1.5,1.5,0,0,1-.3,1,1.3,1.3,0,0,1-1,.3Z" transform="translate(-50.8 -162.1)"/><path class="518bef71-fc97-40d2-81bb-08cdb57a23d1" d="M197.9,218.4h-5.7a1.8,1.8,0,0,1-1.1-.3,1.5,1.5,0,0,1-.3-1V192.4a1.3,1.3,0,0,1,.3-1,1.4,1.4,0,0,1,1.1-.4h3.9a2.8,2.8,0,0,1,1.3.3,2.4,2.4,0,0,1,1,.8l7.4,8.4v-8.1a1.3,1.3,0,0,1,.3-1,1.2,1.2,0,0,1,1-.4h5.7a1.2,1.2,0,0,1,1.1.4,1.3,1.3,0,0,1,.3,1v24.7a1.5,1.5,0,0,1-.3,1,1.6,1.6,0,0,1-1.1.3h-5.7a1.1,1.1,0,0,1-1.3-1.3v-4.7l-6.5-7.9v12.6a1.2,1.2,0,0,1-.4,1A1.3,1.3,0,0,1,197.9,218.4Z" transform="translate(-50.8 -162.1)"/><path class="518bef71-fc97-40d2-81bb-08cdb57a23d1" d="M240.4,218.4h-12c-3.2,0-5.5-.6-7.1-1.9s-2.3-3.2-2.3-5.8V198.8a7.5,7.5,0,0,1,2.3-5.9c1.6-1.2,3.9-1.9,7.1-1.9h9.5a1.4,1.4,0,0,1,1.1.4,1.3,1.3,0,0,1,.3,1V197a1.1,1.1,0,0,1-1.4,1.4H230c-.8,0-1.4.1-1.7.5a1.7,1.7,0,0,0-.6,1.4v9.1a2,2,0,0,0,.4,1.4,1.7,1.7,0,0,0,1.3.4h3.7v-5.9a1.3,1.3,0,0,1,.3-1,1.4,1.4,0,0,1,1.1-.4h5.9a1.1,1.1,0,0,1,1,.4,1.3,1.3,0,0,1,.4,1v11.8a1.5,1.5,0,0,1-.4,1A1.3,1.3,0,0,1,240.4,218.4Z" transform="translate(-50.8 -162.1)"/><path class="a51d9288-caea-4a14-a111-9aefa9843ecd2" d="M266.6,205.2h1.2V215a11.9,11.9,0,0,1-4.2,2.6,17,17,0,0,1-5.1.8,14.1,14.1,0,0,1-7.1-1.7,13.3,13.3,0,0,1-4.9-4.8,12.8,12.8,0,0,1-1.9-6.9,12.3,12.3,0,0,1,1.9-6.9,11.9,11.9,0,0,1,4.9-4.8,14.1,14.1,0,0,1,7.1-1.8,14.6,14.6,0,0,1,5.2.9,10.3,10.3,0,0,1,4.1,2.6l-.7.9a12,12,0,0,0-8.6-3.2,12.4,12.4,0,0,0-6.4,1.6,12.7,12.7,0,0,0-4.5,4.4,12.4,12.4,0,0,0-1.7,6.3,12,12,0,0,0,1.7,6.2,11.2,11.2,0,0,0,4.5,4.4,12.5,12.5,0,0,0,6.4,1.7,12.1,12.1,0,0,0,8.1-2.8Z" transform="translate(-50.8 -162.1)"/><path class="a51d9288-caea-4a14-a111-9aefa9843ecd2" d="M294.8,217.1v1.2h-18V191.7h17.4v1.1H278.1v11.4h14.4v1.2H278.1v11.7Z" transform="translate(-50.8 -162.1)"/><path class="a51d9288-caea-4a14-a111-9aefa9843ecd2" d="M306,216.7a13.3,13.3,0,0,1-4.9-4.8,13.7,13.7,0,0,1-1.8-6.9,13.1,13.1,0,0,1,1.8-6.9,11.9,11.9,0,0,1,4.9-4.8,13.8,13.8,0,0,1,7-1.8,14.6,14.6,0,0,1,5.2.9,12.5,12.5,0,0,1,4.1,2.6l-.8.9a11.7,11.7,0,0,0-8.4-3.2,12.4,12.4,0,0,0-6.4,1.6,12.7,12.7,0,0,0-4.5,4.4,12.3,12.3,0,0,0-1.6,6.3,11.9,11.9,0,0,0,1.6,6.2,11.2,11.2,0,0,0,4.5,4.4,12.5,12.5,0,0,0,6.4,1.7,11.7,11.7,0,0,0,8.4-3.3l.8.9a12.5,12.5,0,0,1-4.1,2.6,14.6,14.6,0,0,1-5.2.9A13.7,13.7,0,0,1,306,216.7Z" transform="translate(-50.8 -162.1)"/><path class="a51d9288-caea-4a14-a111-9aefa9843ecd2" d="M336.8,204.7l-6.4,6.6v7h-1.3V191.7h1.3v17.9l17.4-17.9h1.6l-11.8,12.1,12.7,14.5h-1.6Z" transform="translate(-50.8 -162.1)"/><path class="a51d9288-caea-4a14-a111-9aefa9843ecd2" d="M358.7,216.7a13.3,13.3,0,0,1-4.9-4.8A13.7,13.7,0,0,1,352,205a13.1,13.1,0,0,1,1.8-6.9,11.9,11.9,0,0,1,4.9-4.8,13.8,13.8,0,0,1,7-1.8,14.4,14.4,0,0,1,7.1,1.8,11.9,11.9,0,0,1,4.9,4.8,13.1,13.1,0,0,1,1.8,6.9,13.7,13.7,0,0,1-1.8,6.9,13.3,13.3,0,0,1-4.9,4.8,14.3,14.3,0,0,1-7.1,1.7A13.7,13.7,0,0,1,358.7,216.7Zm13.4-1a12.7,12.7,0,0,0,4.5-4.4,13.2,13.2,0,0,0,0-12.6,11.9,11.9,0,0,0-4.5-4.4,12.7,12.7,0,0,0-6.4-1.6,12.3,12.3,0,0,0-6.3,1.6,11.9,11.9,0,0,0-4.5,4.4,13.2,13.2,0,0,0,0,12.6,12.7,12.7,0,0,0,4.5,4.4,13.4,13.4,0,0,0,6.3,1.6A13.8,13.8,0,0,0,372.1,215.7Z" transform="translate(-50.8 -162.1)"/><path class="a51d9288-caea-4a14-a111-9aefa9843ecd" d="M60,201.9h-.3a1.6,1.6,0,0,1-.8-1.2,2.1,2.1,0,0,1,.3-1.3,3.3,3.3,0,0,0,.8-2.6,4.4,4.4,0,0,1,.2-3.4c1-1.8,3.4-2.3,3.5-2.4s2-1.1,2-1.6-.4-.5-.6-.6a4.8,4.8,0,0,0-5.1-.1.5.5,0,0,1-.7-.1.5.5,0,0,1,.1-.7,5.7,5.7,0,0,1,6.2,0,1.9,1.9,0,0,1,1.1,1.6c-.1,1.3-2.3,2.3-2.7,2.5a4.8,4.8,0,0,0-2.9,1.9,3.3,3.3,0,0,0-.1,2.6h0a4.1,4.1,0,0,1-1,3.4c0,.1-.2.3-.1.6s.1.3.4.5.2.4.1.7Z" transform="translate(-50.8 -162.1)"/><path class="a51d9288-caea-4a14-a111-9aefa9843ecd" d="M61.1,202.5h-.2a1.7,1.7,0,0,1-1.2-.7.5.5,0,0,1,.8-.6.5.5,0,0,0,.5.3l.6-.2h0a4.4,4.4,0,0,1,3.3-1.3H65a2.7,2.7,0,0,0,2.5-.3,4.6,4.6,0,0,0,1.7-2.9c.1-.5.5-2.9,1.6-3.5a1.7,1.7,0,0,1,1,0,4.3,4.3,0,0,1,2.1,4.8c-.1.3-.4.5-.6.4s-.5-.3-.4-.6a3.3,3.3,0,0,0-1.6-3.7h-.1c-.4.2-.8,1.6-1,2.7a6,6,0,0,1-2.1,3.7,4.1,4.1,0,0,1-3.3.4,3.1,3.1,0,0,0-2.5,1A1.9,1.9,0,0,1,61.1,202.5Z" transform="translate(-50.8 -162.1)"/><path class="a51d9288-caea-4a14-a111-9aefa9843ecd" d="M55.4,191.9a4.6,4.6,0,0,1-1.8-.6,1.4,1.4,0,0,1-.6-1.1h-.9c-.9-.2-1.2-.8-1.2-1.1a2,2,0,0,1,1-1.9c.4-.2.8-.2,1,.1a2.5,2.5,0,0,0,1.4-.4h-.2a2.4,2.4,0,0,1-1.4-.6,1,1,0,0,1-.4-1.1,1.2,1.2,0,0,1,1-.9.8.8,0,0,1,1,.4,3.9,3.9,0,0,0,2,.6.6.6,0,0,1,.5.6c-.1.3-.3.5-.6.4a3.1,3.1,0,0,1-1.1-.2l.6.6.3.4-.5.3-1.5.7h1.2a1.8,1.8,0,0,1,.8.7l.2.3-.3.3-.3.3c-.3.4-.7.9-1.2.8s1,.5,1.1.4h0c-.1-1.4,1.9-2.6,2.1-2.7a.7.7,0,0,1,.7.2.6.6,0,0,1-.2.7c-.5.3-1.6,1.1-1.6,1.7a1.1,1.1,0,0,1-.5,1.1Zm-1.3-2.5h.3l.5-.4h-.8Zm-1.7-1.3a1.2,1.2,0,0,0-.6.8l.5.3c.7.1.8,0,.8,0h0l-.3-.5.5-.2.4-.2A1.4,1.4,0,0,1,52.4,188.1Zm1.1-2.8h-.2c-.1.1,0,.2.1.2a1,1,0,0,0,.8.3h.3a2.4,2.4,0,0,1-1-.6Z" transform="translate(-50.8 -162.1)"/><path class="a51d9288-caea-4a14-a111-9aefa9843ecd" d="M73.1,207H73c-.3,0-.9-.2-1.1-1.1a2.2,2.2,0,0,1-.1-.9,1.1,1.1,0,0,1-1.1-.5c-.2-.2-1.2-1.5-.8-2.3a1.1,1.1,0,0,1,1-.6c.7-.1,1.4-1.2,1.6-1.8a.6.6,0,0,1,.7-.2.5.5,0,0,1,.2.7c-.1.2-1,2.2-2.4,2.3h-.2a2.2,2.2,0,0,0,.5,1.1c-.1-.5.3-.9.7-1.3l.3-.4.3-.2h.3a1.6,1.6,0,0,1,.8.8,2,2,0,0,1,0,1.1,10.1,10.1,0,0,1,.7-1.5l.2-.5.5.2c.2.2.4.3.5.5a2.9,2.9,0,0,0-.3-1c0-.3.2-.6.4-.6a.4.4,0,0,1,.6.4c.1.6.5,1.7.9,1.9a1,1,0,0,1,.4,1,1.2,1.2,0,0,1-.7,1.1,1.5,1.5,0,0,1-1.3-.3,1.9,1.9,0,0,1-.6-1.4v-.2c-.2.6-.4,1.3-.2,1.4a.8.8,0,0,1,.1,1A2,2,0,0,1,73.1,207Zm-.4-2.3c.1,0,0,.2.1.8a1.1,1.1,0,0,0,.3.5,1.4,1.4,0,0,0,.8-.7,1.4,1.4,0,0,1-.2-1.3l-.2.5-.2.4-.4-.2Zm3.2-1.6v.3a1.3,1.3,0,0,0,.3.8c.1,0,.1.1.2,0s.1-.1.1-.2A2.2,2.2,0,0,1,75.9,203.1Zm-3.2-.2h0a.9.9,0,0,0-.4.5.4.4,0,0,1,.1.3h.3a.9.9,0,0,0,0-.7Z" transform="translate(-50.8 -162.1)"/><path class="a51d9288-caea-4a14-a111-9aefa9843ecd" d="M77.2,200.6h-.1c-.3,0-.4-.3-.4-.6,1.1-3.2-.7-5.5-1.9-7.1a6.3,6.3,0,0,1-.9-1.4c-.4-2.1,5.4-4.4,5.5-4.4a7.1,7.1,0,0,0,2.6-2.8c.7-1.1,1.4-2.2,2.3-2.5s2.1.7,3,1.6,1,1.3,1.5,1.4,1.4,1.4,1.6,2.2a2.8,2.8,0,0,0,.4,1.2c.4.4,1,.2,1.9-.3h0a4.2,4.2,0,0,1-1.5-.7,1.8,1.8,0,0,1-.7-2.1,1.3,1.3,0,0,1,1.6-.6,4.5,4.5,0,0,1,2,1.4l.6.6a2.9,2.9,0,0,0-.2-2.1h-1a11.9,11.9,0,0,1-1.9,0c-.5-.1-1.1-.2-1.2-.7s.3-.9,1.2-1.6l.6-.5a2.8,2.8,0,0,0,.8-.8h0l-.3-.3c-.3-.2-1.5.5-1.9.9a1.1,1.1,0,0,1-.9.2,6.9,6.9,0,0,1-4.4-3,1.7,1.7,0,0,1,0-1.9,6.7,6.7,0,0,1,4-2.5c.2,0,5.8-.2,7.5,3.3a13.6,13.6,0,0,1,.9,5.4,24.8,24.8,0,0,0,1.1-3.3,6.7,6.7,0,0,0-1.1-5.1,11.9,11.9,0,0,0-7.5-5.3c-3.8-.8-6.7,1.9-8.6,3.7a11,11,0,0,1-1.2,1.1l-.4.3-.3-.4a6.9,6.9,0,0,1-1-3.4,11.8,11.8,0,0,0-.4-2c-.8-1.6-.3-2.2.4-2.7l.2-.3c0-.2-.7-.9-1.1-1.1v1.1c0,1,0,1.8-.6,2.1s-.5.2-1-.2a3.2,3.2,0,0,1-1-2,2.3,2.3,0,0,0-.9-1.9c-.4-.4-.6-.2-.7-.1s-.3.7-.3.8,1.9,3.4,2,3.9a.7.7,0,0,1-.4.7c-.9.4-2.5-1.4-2.5-1.4l-.2-.2c-.1,0-.3.2-.7.9h.4a5.3,5.3,0,0,1,3.1,1.3,3.3,3.3,0,0,1,1.1,2.5,4.2,4.2,0,0,0,1.4,2.9l.4.5-.6.3c-3.7,1.7-4.7,4.9-5.4,7.1l-.7,1.7c-.6.8-1.4,2-2.6,2.2a3.6,3.6,0,0,1-2.9-1.3c-2.2-2-7.3.3-7.4.4a.4.4,0,0,1-.6-.3c-.2-.2-.1-.5.2-.6s5.8-2.7,8.5-.2a3.4,3.4,0,0,0,2,1c.8-.1,1.4-1,1.9-1.8a6.4,6.4,0,0,0,.6-1.4c.7-2.1,1.8-5.5,5.4-7.4a5.1,5.1,0,0,1-1.2-3,2,2,0,0,0-.8-1.8,5.5,5.5,0,0,0-2.6-1.2c-.5-.1-1-.2-1.2-.6a1,1,0,0,1,.1-.7c.3-.6.7-1.5,1.4-1.6a1.7,1.7,0,0,1,1.2.6,4.1,4.1,0,0,0,1,.9,5.2,5.2,0,0,0-1.2-2.6c-.4-.1-.6-.4-.7-.9a2.3,2.3,0,0,1,.9-1.8,1.8,1.8,0,0,1,1.8.3,3.5,3.5,0,0,1,1.2,2.5c.1.6.2,1.1.6,1.3v-1a7.6,7.6,0,0,1,.1-1.6.9.9,0,0,1,.8-.5h0a3.1,3.1,0,0,1,2.1,1.7.9.9,0,0,1-.2,1.1l-.3.3c-.4.4-.6.6-.1,1.6a8.6,8.6,0,0,1,.5,2.3,6.9,6.9,0,0,0,.5,2.4c.3-.1.5-.4.8-.6,1.9-1.8,5.1-4.8,9.4-4a13.7,13.7,0,0,1,8.2,5.8,8,8,0,0,1,1.2,5.8c-1.2,4.5-2.4,5.5-2.6,5.6l-1,.8.2-1.3a12.1,12.1,0,0,0-.6-7c-1.3-2.9-6.4-2.7-6.5-2.7a6.2,6.2,0,0,0-3.2,2.1,1.1,1.1,0,0,0,0,.8,6,6,0,0,0,3.8,2.5,4.4,4.4,0,0,1,2.6-1.1,1,1,0,0,1,.8.4l.2.2a1,1,0,0,1,.4.8c-.1.4-.4.8-1.3,1.5l-.6.5-.6.5h.2a8.5,8.5,0,0,0,1.6,0,2.2,2.2,0,0,1,1.6.1c.7.3.8,1.6.8,2.1s-.1,1.6-.8,1.9-.5.2-.9-.2l-.7-.7a3.8,3.8,0,0,0-1.6-1.1c-.1,0-.3-.1-.4,0a.9.9,0,0,0,.3.9l1.3.5c.8.3,1.4.5,1.4,1.1s-.2.5-.6.7l-.7.3c-.9.4-2.1.9-2.9.1a3.4,3.4,0,0,1-.8-1.7c-.1-.9-.3-1.5-.8-1.6s-1.5-.9-2.1-1.6-1.4-1.5-1.9-1.4-1.2,1.1-1.8,2.1-1.7,2.7-3.1,3.2-4.9,2.7-4.8,3.2l.7,1.1c1.3,1.6,3.3,4.3,2.1,8A.7.7,0,0,1,77.2,200.6Z" transform="translate(-50.8 -162.1)"/><path class="a51d9288-caea-4a14-a111-9aefa9843ecd" d="M71.5,187c-.2,0-.4-.1-.4-.3s-.1-.5.2-.6h0a7.3,7.3,0,0,0,2.7-3.8c1.1-3.1,5.1-5.2,5.3-5.2s.5-.1.6.2.1.5-.2.6-3.8,2-4.7,4.8a7.2,7.2,0,0,1-3.3,4.2Z" transform="translate(-50.8 -162.1)"/><path class="a51d9288-caea-4a14-a111-9aefa9843ecd" d="M73.5,189h-.4a1.1,1.1,0,0,1,0-.8,22.9,22.9,0,0,1,4.2-3c1.4-.8,2.4-4.4,2.7-5.7a.5.5,0,1,1,1,.2c-.1.5-1.1,5.3-3.3,6.3a15,15,0,0,0-3.8,3Z" transform="translate(-50.8 -162.1)"/><path class="a51d9288-caea-4a14-a111-9aefa9843ecd" d="M86.5,174a.5.5,0,0,1-.5-.5,1.5,1.5,0,0,0-1.5-1.5.5.5,0,0,1,0-1,2.4,2.4,0,0,1,2.5,2.5A.5.5,0,0,1,86.5,174Z" transform="translate(-50.8 -162.1)"/><path class="a51d9288-caea-4a14-a111-9aefa9843ecd" d="M90.5,173a.5.5,0,0,1-.5-.5c0-1.7-1.7-2.5-1.7-2.6s-.4-.4-.2-.6.4-.4.6-.2a3.9,3.9,0,0,1,2.3,3.4A.5.5,0,0,1,90.5,173Z" transform="translate(-50.8 -162.1)"/><path class="a51d9288-caea-4a14-a111-9aefa9843ecd" d="M93.5,174a.5.5,0,0,1-.5-.5,3.3,3.3,0,0,0-.9-2.6.8.8,0,0,1,.1-.8h.7a5.6,5.6,0,0,1,1.1,3.4A.5.5,0,0,1,93.5,174Z" transform="translate(-50.8 -162.1)"/><path class="a51d9288-caea-4a14-a111-9aefa9843ecd" d="M97.5,178a.5.5,0,0,1-.5-.5,6.1,6.1,0,0,0-.9-3.7.6.6,0,0,1,.1-.7h.7c.1.2,1.1,1.3,1.1,4.4A.5.5,0,0,1,97.5,178Z" transform="translate(-50.8 -162.1)"/><path class="a51d9288-caea-4a14-a111-9aefa9843ecd" d="M62.5,197a.5.5,0,0,1-.5-.5v-3a.5.5,0,0,1,1,0v3A.5.5,0,0,1,62.5,197Z" transform="translate(-50.8 -162.1)"/><path class="a51d9288-caea-4a14-a111-9aefa9843ecd" d="M64.5,199a.5.5,0,0,1-.5-.3.6.6,0,0,1,.3-.7l3-1a.5.5,0,0,1,.4,1l-3,1Z" transform="translate(-50.8 -162.1)"/></svg>