<svg xmlns="http://www.w3.org/2000/svg" width="15" height="15" viewBox="0 0 11.429 11.431"><defs><style>.a{fill:#fff;}</style></defs><g transform="translate(-80.219 833)"><path class="a" d="M195.568-832.89a2.954,2.954,0,0,0-2.343,2.154c-.1.4-.111.634-.1,3.737a22.628,22.628,0,0,0,.057,3.136,2.968,2.968,0,0,0,2.3,2.31,10.526,10.526,0,0,0,1.635.05,6.329,6.329,0,0,0,1.5-.028c.036-.036.038-.492.038-5.671,0-3.839-.007-5.647-.024-5.68s-.064-.045-1.451-.043A15.328,15.328,0,0,0,195.568-832.89Zm2.142,5.68v4.8l-.963-.012a4.983,4.983,0,0,1-1.16-.059,2.008,2.008,0,0,1-1.486-1.548c-.052-.239-.052-6.128,0-6.362a2.032,2.032,0,0,1,1.226-1.465,3.407,3.407,0,0,1,1.47-.142l.916,0Z" transform="translate(-112.902 -0.072)"/><path class="a" d="M269.971-733.745a1.262,1.262,0,0,0-.5.248,1.049,1.049,0,0,0-.353.881.745.745,0,0,0,.1.388,1.078,1.078,0,0,0,.509.511.733.733,0,0,0,.4.095.861.861,0,0,0,.379-.043,1.069,1.069,0,0,0,.736-1.184A1.087,1.087,0,0,0,269.971-733.745Z" transform="translate(-187.102 -96.886)"/><path class="a" d="M475.017-832.983c-.009.007-.017,2.573-.017,5.7,0,5.162,0,5.685.038,5.7.064.024,1.9.014,2.128-.009a2.955,2.955,0,0,0,2.27-1.562,3.512,3.512,0,0,0,.178-.414c.149-.445.144-.327.144-3.728,0-2.715,0-3.119-.038-3.292a2.939,2.939,0,0,0-2.409-2.376,9.26,9.26,0,0,0-1.245-.035C475.5-833,475.024-832.993,475.017-832.983Zm2.528,5.155a1.158,1.158,0,0,1,.8.738,1.237,1.237,0,0,1,0,.753,1.168,1.168,0,0,1-.793.734,1.166,1.166,0,0,1-1.394-.791,1.357,1.357,0,0,1,.01-.667A1.149,1.149,0,0,1,477.544-827.828Z" transform="translate(-388.11)"/></g></svg>