<svg xmlns="http://www.w3.org/2000/svg" width="15" height="15" viewBox="0 0 14.879 11.484"><defs><style>.a{fill:#fff;fill-rule:evenodd;}</style></defs><path class="a" d="M15.746,9.79a2.785,2.785,0,0,1-1,.628l-5.3,1.9v-1.4l3.9-1.389c.442-.158.51-.383.151-.5a2.63,2.63,0,0,0-1.452.075l-2.6.915V8.562l.15-.051A8.911,8.911,0,0,1,11.4,8.128a7.7,7.7,0,0,1,3.362.4c1.143.361,1.272.894.982,1.261ZM9.951,7.4V3.812c0-.421-.078-.809-.473-.919-.3-.1-.491.184-.491.605v8.986l-2.423-.769V1A29.14,29.14,0,0,1,9.9,1.916c2.052.7,2.748,1.582,2.748,3.558,0,1.926-1.189,2.656-2.7,1.927Zm-7.834,3.37C.943,10.44.748,9.751,1.283,9.355a5.75,5.75,0,0,1,1.335-.642L6.093,7.477V8.885l-2.5.895c-.442.158-.51.383-.151.5a2.637,2.637,0,0,0,1.452-.075l1.2-.435v1.26l-.239.04a7.862,7.862,0,0,1-3.737-.3Zm12.858.558a.568.568,0,1,1-.567.568A.568.568,0,0,1,14.975,11.329ZM14.5,11.9a.473.473,0,0,0,.472.472.472.472,0,0,0,.472-.472.472.472,0,1,0-.944,0Zm.643-.306a.155.155,0,0,1,.094.155.174.174,0,0,1-.025.1.167.167,0,0,1-.048.046.139.139,0,0,1,.038.031.145.145,0,0,1,.022.084l0,.081a.207.207,0,0,0,.006.048.035.035,0,0,0,.018.027l.008,0V12.2H15.14l0-.007a.111.111,0,0,1-.008-.025.383.383,0,0,1,0-.049l-.005-.1a.072.072,0,0,0-.035-.068.176.176,0,0,0-.068-.009h-.172V12.2h-.11v-.632h.293a.284.284,0,0,1,.119.022Zm-.3.254h.175a.151.151,0,0,0,.083-.02.083.083,0,0,0,.027-.072.076.076,0,0,0-.039-.076.14.14,0,0,0-.06-.011h-.186v.178Z" transform="translate(-1 -1)"/></svg>