<svg id="d1b842fe-ca2c-4b32-92dc-186b6f9588bf" data-name="Layer 1" xmlns="http://www.w3.org/2000/svg" viewBox="0 0 303 303"><title>time</title><path d="M257.5,120a116.4,116.4,0,1,1-82.4,34.1A115.8,115.8,0,0,1,257.5,120m0-35A151.5,151.5,0,1,0,409,236.5,151.5,151.5,0,0,0,257.5,85Z" transform="translate(-106 -85)"/><path d="M305.6,269h-51a17.5,17.5,0,0,1,0-35h51a17.5,17.5,0,0,1,0,35Z" transform="translate(-106 -85)"/><path d="M254.1,268.5A17.5,17.5,0,0,1,236.6,251V166.5a17.5,17.5,0,0,1,35,0V251A17.5,17.5,0,0,1,254.1,268.5Z" transform="translate(-106 -85)"/></svg>